<?xml version="1.0" standalone="no"?><svg xmlns="http://www.w3.org/2000/svg" version="1.0" viewBox="0 0 512 512"><metadata>Created by Nícolas Justin</metadata><path d="M121.8 51.5c-.2.1-2.6.5-5.5.9-2.9.3-7.5 1.1-10.3 1.7-2.9.6-5.7 1.2-6.3 1.3-2.3.5-13.2 3.9-14.7 4.6-18.4 9-23.8 12-30.5 17-16.5 12.4-30.1 28.2-39.3 45.9-4.7 8.9-10.2 23.5-11.6 30.6C.5 168.7.2 172.6.5 188c.2 8.5.6 16.6.9 18 .4 1.4.9 4.1 1.2 6 .3 1.9.7 4.3 1 5.2.3 1 .7 2.9 1 4.4 1 5.6 7.6 23 12.3 32.7 7.3 14.9 20.4 33.9 33.1 48.1 11.3 12.8 38.5 38.2 39.3 36.9.6-.9 34.9-87.1 44.3-111.3 3.6-9.1 7.1-17.9 7.8-19.5.7-1.7 5.1-12.4 9.6-23.9 4.6-11.6 8.6-20.3 8.8-19.5.2.7 1 2.7 1.7 4.4.7 1.6 2.8 6.7 4.5 11.2 1.8 4.6 3.4 8.3 3.7 8.3.2 0 4.9-4.5 10.3-10l10-10.1V215h51.6l15.5 23 15.4 22.9 38.8.1h38.8l4.7 3.2c13.5 9.2 23 22.6 23.7 33.3.9 13.2-7.4 34.8-21.2 55l-6.9 10-39.1.5-39.1.5-10.7 13.5c-5.9 7.4-12.1 15.2-13.9 17.4-1.7 2.1-5.1 6.4-7.6 9.5l-4.5 5.6.1 9.5c.1 5.2.3 12.4.3 16l.2 6.5 9.7 6c5.3 3.3 10.3 5.8 11.1 5.7.9-.2 3.3-1.6 5.6-3.1 5.8-4 9.6-6.4 33.5-21.5 48.6-30.5 60-37.9 73.8-47.7 68-48.5 106.3-87.4 125.7-127.4 5.1-10.6 11.8-29.6 13-36.6.6-3.8 1.2-7.1 2.1-10.9.3-1.4.7-9.7.9-18.5.5-25-3.1-40.9-14-63-19.1-38.6-57.6-66.3-100.5-72.1-6.9-1-26.7-1.1-34-.2-34.9 4.1-67.9 22.8-89.4 50.8-5.2 6.7-14.2 21.6-15.7 25.9-.6 1.7-1.4 3.1-1.7 3.1-.4 0-2-2.8-3.6-6.3-3.1-6.7-12.5-21.3-17.2-26.7-22.2-25.6-49.7-41-82.9-46.5-4-.7-30.1-1.5-30.7-1z"/><path d="M156.1 261.3c-12.1 24.3-12.7 25.3-20.2 32.8-5.9 5.9-9.9 11.4-17.8 24.3-5.5 9.2-10.1 17.1-10.1 17.7 0 .5-.4.9-1 .9-.5 0-1 .6-1 1.2 0 .7-1.4 3.3-3.1 5.8l-3 4.4 2.8 2.6c6.7 6.2 38.3 29.4 57.3 42 8.4 5.6 33.4 21.5 36.8 23.5.9.5 2.9 1.8 4.4 2.8 1.5.9 2.9 1.4 3.1 1 .2-.5.5-7.5.5-15.7.1-8.1.2-14.9.4-15.1.2-.1 4.8.9 10.4 2.3 9 2.2 10.4 2.3 13 1.1 3.7-1.8 12.4-13.4 16.8-22.4 6.3-12.7 6.5-11.2-2.3-19.9l-7.7-7.7.1-12.6.1-12.7-7.8-7.8-7.7-7.7-.6-6.8c-.3-3.7-.8-8.4-1-10.3-.3-1.9-.7-5.8-1-8.5-.2-2.8-.8-7.9-1.1-11.5-.4-3.6-.8-7.7-.9-9.3-.1-1.5-.5-3-.8-3.3-.4-.5-5.7 6.6-18.4 24.9-2.3 3.3-4.8 6.7-5.7 7.5-1.4 1.4-1.6 1.3-2.6-1.4-5-13.1-18.3-46-18.8-46.6-.4-.3-6.3 10.7-13.1 24.5z"/></svg>
